<!-- created by svgstack.com | Attribution is required. --><svg width="90" height="89" viewBox="0 0 90 89" fill="none" xmlns="http://www.w3.org/2000/svg"><g clip-path="url(#clip0_809_1046)"><path d="M44.75 0C20.1749 0 0.25 19.9249 0.25 44.5C0.25 69.0751 20.1749 89 44.75 89C69.3251 89 89.25 69.0751 89.25 44.5C89.25 19.9249 69.3251 0 44.75 0ZM44.75 2.8925C67.7268 2.8925 86.3538 21.5195 86.3538 44.5C86.3538 67.4768 67.7305 86.1038 44.75 86.1038C21.7695 86.1038 3.14621 67.4768 3.14621 44.5C3.14621 21.5232 21.7732 2.8925 44.75 2.8925ZM42.2357 5.22875C41.012 5.28067 39.7882 5.3845 38.5571 5.518L38.1603 16.4353C39.0335 16.2876 39.9117 16.1713 40.7932 16.0867L41.0528 8.71458L41.0046 8.20654L41.164 8.68862L43.6264 14.2103H45.8736L48.336 8.69233L48.4843 8.20654L48.4472 8.71458L48.7068 16.0867C49.5671 16.1683 50.4608 16.287 51.3397 16.4353L50.9355 5.518C49.7129 5.38023 48.486 5.28375 47.2568 5.22875L44.8353 11.2548L44.75 11.6998L44.6647 11.2548L42.2357 5.22875ZM67.0667 11.9927L61.3448 20.9966C62.0679 21.5528 63.021 22.3724 63.6328 22.9323L69.021 20.1362L69.3622 19.8804L69.1063 20.229L66.3177 25.6172C66.9221 26.2661 67.7936 27.3156 68.2831 27.9534L77.2943 22.2277C76.7417 21.5128 76.1729 20.8106 75.5885 20.1214L69.8814 23.8817L69.492 24.2228L69.7812 23.7964L72.3029 18.7679L70.5229 16.9879L65.4944 19.5095L65.068 19.7988L65.4054 19.4057L69.1805 13.6986C68.513 13.1349 67.8789 12.6195 67.0667 11.9927ZM20.6458 14.036C19.3108 14.1733 18.2799 15.0855 15.4801 18.2079C14.5093 19.3082 13.5731 20.4385 12.6729 21.5973L20.364 28.8916C22.9116 26.0733 23.9463 25.0275 25.9562 22.9101C27.3765 21.4082 28.1812 19.6838 26.7572 18.0262C25.9858 17.1288 24.6879 16.9322 23.6051 17.3772L23.5012 17.4143L23.5383 17.3179C23.6721 16.8259 23.6579 16.3053 23.4977 15.8213C23.3374 15.3372 23.0381 14.911 22.6372 14.596C22.3585 14.3763 22.039 14.214 21.6972 14.1185C21.3554 14.023 20.9981 13.9925 20.6458 14.036ZM20.6681 16.3167C21.1724 16.1795 21.6953 16.5392 21.8103 17.0583C21.9289 17.5775 21.6026 18.067 21.2392 18.4749C20.4233 19.402 17.4159 22.5467 17.4159 22.5467L15.9251 21.1264C17.4715 19.2351 19.118 17.5145 19.8634 16.8321C20.087 16.599 20.3628 16.4223 20.6681 16.3167ZM44.75 18.1078C38.2174 18.1049 31.9161 20.5259 27.0659 24.902C22.2157 29.2781 19.1617 35.2981 18.495 41.7966V41.804C18.076 45.927 18.633 50.0906 20.1211 53.9584C21.6093 57.8261 23.9867 61.2894 27.0611 64.0682C30.1356 66.847 33.8208 68.8633 37.8188 69.954C41.8169 71.0448 46.0155 71.1795 50.0752 70.3471C56.0258 69.1239 61.3718 65.8838 65.2096 61.1744C69.0473 56.465 71.1416 50.5751 71.1385 44.5C71.1316 37.5038 68.3491 30.7961 63.4017 25.8494C58.4543 20.9027 51.7462 18.1211 44.75 18.1152V18.1078ZM24.217 19.0052C24.3912 19.0052 24.573 19.0534 24.7361 19.1647C25.0625 19.3835 25.2108 19.758 25.1292 20.1288C25.0328 20.5701 24.6657 20.9855 24.369 21.3081L20.4938 25.4614L18.9363 23.9781C18.9363 23.9781 21.8547 20.8927 22.8115 19.9026C23.1897 19.5095 23.4345 19.2722 23.6941 19.1424C23.8549 19.0589 24.0359 19.0121 24.217 19.0052ZM44.75 21.5751C47.7615 21.5717 50.7441 22.1623 53.527 23.3132C56.3099 24.4641 58.8385 26.1526 60.968 28.282C63.0974 30.4115 64.7859 32.9401 65.9368 35.723C67.0877 38.5059 67.6783 41.4885 67.6749 44.5H44.75V67.4249C41.7385 67.4283 38.7559 66.8377 35.973 65.6868C33.1901 64.5359 30.6615 62.8474 28.532 60.718C26.4026 58.5885 24.7141 56.0599 23.5632 53.277C22.4123 50.4941 21.8217 47.5115 21.8251 44.5H44.75V21.5751Z" fill="black"/></g><defs><clipPath id="clip0_809_1046"><rect width="89" height="89" fill="white" transform="translate(0.25)"/></clipPath></defs></svg> 