<!-- created by svgstack.com | Attribution is required. --><svg width="91" height="58" viewBox="0 0 91 58" fill="none" xmlns="http://www.w3.org/2000/svg"><path d="M10.8107 47.9117L12.1889 48.0758C12.8124 48.1414 12.8781 48.6665 12.8781 48.9947V50.6026H6.54457V48.9947C6.54457 48.6665 6.6102 48.1414 7.2337 48.0758L8.61198 47.9117V46.5334H0.407959V47.9117L1.78623 48.0758C2.40974 48.1414 2.47537 48.6665 2.47537 48.9947V54.3109C2.47537 54.639 2.40974 55.1641 1.78623 55.2297L0.407959 55.3938V56.7721H8.61198V55.3938L7.2337 55.2297C6.6102 55.1641 6.54457 54.639 6.54457 54.3109V52.7029H12.8453V54.3109C12.8453 54.639 12.7796 55.1641 12.1561 55.2297L10.7778 55.3938V56.7721H18.9819V55.3938L17.6036 55.2297C16.9801 55.1641 16.9144 54.639 16.9144 54.3109V48.9947C16.9144 48.6665 16.9801 48.1414 17.6036 48.0758L18.9819 47.9117V46.5334H10.7778V47.9117H10.8107V47.9117Z" fill="black"/><path d="M65.4494 46.5334H55.3421V47.9117L56.5563 48.043C56.9829 48.1086 57.2782 48.2727 57.2782 48.8634V54.278C57.2782 54.6062 57.2126 55.1313 56.5891 55.1969L55.2108 55.361V56.7392H65.4494C69.1248 56.7392 72.1439 55.2625 72.1439 51.6199C72.1439 47.9774 69.1248 46.5334 65.4494 46.5334M64.6947 54.8031H61.249V48.5024H64.6947C66.7293 48.5024 67.4184 49.4541 67.4184 51.6528C67.4184 53.8186 66.7293 54.8031 64.6947 54.8031Z" fill="black"/><path d="M89.3396 55.2297C88.6833 55.1641 88.4864 54.7375 88.2895 54.4421L83.564 47.2226C83.2358 46.6975 82.9733 46.5334 82.4811 46.5334H74.7365V47.9117L76.607 48.1086C76.8695 48.1414 77.2305 48.5024 76.9352 48.9618L73.4238 54.639C73.2926 54.8687 73.0957 55.1313 72.7019 55.1969L71.3236 55.361V56.7392H77.854V55.361L76.7383 55.2625C76.246 55.1969 75.9835 54.8687 76.246 54.4749L76.7711 53.6217H83.0718L83.5312 54.3109C83.9578 54.9344 83.4327 55.1969 82.9733 55.2297L81.8248 55.361V56.7392H90.6851V55.361L89.3396 55.2297V55.2297ZM77.854 51.8168L79.7902 48.6665L81.8576 51.8168H77.854Z" fill="black"/><path d="M48.024 47.9112L49.4023 48.0753C50.0258 48.1409 50.0914 48.666 50.0914 48.9941V54.1135L44.6768 46.9596C44.447 46.6314 44.2173 46.5329 43.6266 46.5329H36.604V47.9112L37.9823 48.0753C38.6058 48.1409 38.6714 48.666 38.6714 48.9941V54.3103C38.6714 54.6385 38.6058 55.1636 37.9823 55.2292L36.604 55.3933V56.7716H43.1672V55.3933L41.7889 55.2292C41.1654 55.1636 41.0998 54.6385 41.0998 54.3103V49.191L46.5145 56.3121C46.777 56.6403 46.9739 56.7387 47.5646 56.7387H47.6302H52.5526V48.9613C52.5526 48.6332 52.6182 48.1081 53.2418 48.0425L54.62 47.8784V46.5001H48.0896L48.024 47.9112V47.9112Z" fill="black"/><path d="M27.7765 46.172C21.1149 46.172 19.4084 49.0926 19.4084 51.6195C19.4084 54.1463 21.1149 57.0998 27.7765 57.0998C34.4382 57.0998 36.1446 54.1791 36.1446 51.6523C36.1446 49.0926 34.4382 46.172 27.7765 46.172ZM27.7765 55.1636C25.1841 55.1636 24.134 54.0807 24.134 51.6523C24.134 49.2239 25.2169 48.141 27.7765 48.141C30.369 48.141 31.4191 49.2239 31.4191 51.6523C31.4191 54.0807 30.369 55.1636 27.7765 55.1636Z" fill="black"/><path d="M56.8845 3.38037C55.7688 8.40123 55.3093 10.7312 54.3905 14.3409C53.5044 17.8194 52.8153 21.0682 51.6339 22.6434C50.4525 24.2514 48.8446 24.5796 47.7616 24.7108C47.2038 24.7765 46.7771 24.8093 45.563 24.8093C44.3488 24.8093 43.9221 24.7765 43.3643 24.7108C42.2813 24.5796 40.6734 24.2514 39.492 22.6434C38.3106 21.0682 37.6215 17.8194 36.7682 14.3409C35.8494 10.6984 35.39 8.40123 34.2742 3.38037C34.2742 3.38037 33.1585 3.41319 32.6662 3.446C31.9771 3.47882 31.452 3.54445 30.8942 3.61008C30.8942 3.61008 31.5505 13.9471 31.8458 18.3445C32.1412 22.9388 32.699 30.7162 33.1913 36.5902C33.1913 36.5902 34.143 36.7543 35.7181 36.82C37.3589 36.9184 38.1137 36.9184 38.1137 36.9184C38.8028 34.3259 39.6232 30.749 40.5749 29.2066C41.3625 27.9596 42.5439 27.8283 43.233 27.7299C44.2831 27.5986 45.202 27.5658 45.5958 27.5658C46.0224 27.5658 46.9084 27.5658 47.9585 27.7299C48.6477 27.8283 49.829 27.9596 50.6166 29.2066C51.5683 30.749 52.4215 34.3259 53.0778 36.9184C53.0778 36.9184 53.7998 36.9184 55.4406 36.82C57.0158 36.7215 57.9674 36.5902 57.9674 36.5902C58.4597 30.7162 59.0175 22.9716 59.3129 18.3445C59.6082 13.98 60.2646 3.61008 60.2646 3.61008C59.7067 3.54445 59.1488 3.47882 58.4925 3.446C58.0002 3.41319 56.8845 3.38037 56.8845 3.38037Z" fill="black"/><path d="M69.9124 9.48385C69.2561 2.92063 64.8588 1.54236 61.0193 0.886034C59.0831 0.557873 55.6375 0.295344 53.4388 0.196896C51.5026 0.0656318 46.974 0 45.5957 0C44.2175 0 39.6888 0.0656321 37.7527 0.196896C35.554 0.295344 32.1083 0.557873 30.1722 0.886034C26.3327 1.54236 21.9353 2.92063 21.279 9.48385C21.0821 11.2887 21.0493 13.6187 21.0821 16.1127C21.1478 20.2803 21.5087 23.0697 21.7056 25.0387C21.8369 26.3841 22.3948 30.3877 23.1167 32.4551C24.1012 35.3101 24.9872 36.1305 26.0374 36.9837C27.9407 38.5261 31.091 39.0183 31.7474 39.1496C35.2915 39.7731 42.4454 39.9044 45.6286 39.9044C48.7789 39.9044 55.9656 39.8059 59.5098 39.1496C60.1661 39.0183 63.3164 38.5589 65.2197 36.9837C66.2699 36.1305 67.1559 35.3101 68.1404 32.4551C68.8623 30.3877 69.4202 26.3513 69.5515 25.0387C69.7484 23.1025 70.1093 20.2803 70.175 16.1127C70.1422 13.5859 70.0765 11.2559 69.9124 9.48385M67.4841 20.51C67.0903 25.7606 66.6308 28.911 65.9745 31.1753C65.3838 33.1771 64.6619 34.4897 63.6118 35.4414C61.8397 37.0494 59.4113 37.3775 57.9674 37.6072C54.8827 38.0666 49.6649 38.2307 45.5957 38.2307C41.4937 38.2307 36.3088 38.0666 33.2241 37.6072C31.7802 37.3775 29.3518 37.0494 27.5797 35.4414C26.5296 34.4897 25.8076 33.1442 25.217 31.1753C24.5606 28.911 24.0684 25.7606 23.7074 20.51C23.4777 17.3597 23.5105 12.2404 23.8715 9.48385C24.3637 5.34902 26.3983 3.28161 30.7629 2.52684C32.7975 2.16586 35.554 1.90333 38.1465 1.77207C40.2467 1.6408 43.6596 1.57517 45.5957 1.57517C47.4991 1.54236 50.9448 1.6408 53.0122 1.77207C55.6046 1.90333 58.3612 2.16586 60.3958 2.52684C64.7603 3.31442 66.7949 5.38184 67.32 9.48385C67.681 12.2076 67.7138 17.3269 67.4841 20.51Z" fill="black"/></svg> 