<!-- created by svgstack.com | Attribution is required. --><svg width="91" height="47" viewBox="0 0 91 47" fill="none" xmlns="http://www.w3.org/2000/svg"><path fill-rule="evenodd" clip-rule="evenodd" d="M54.5891 29.1567C55.2765 32.7089 53.4147 35.6594 51.8677 38.5233C50.1494 41.1879 47.3134 43.478 43.9047 43.1353C36.2555 43.0208 28.7796 41.8463 21.8466 39.7545C21.5318 39.6688 21.217 39.4676 21.0447 39.1817C20.9013 38.7803 21.1024 38.4078 21.3884 38.1507C27.7197 33.0227 35.2534 30.6459 42.7014 28.1527C45.4796 27.3508 48.4311 26.4911 51.5529 26.8926C52.841 27.0649 54.13 27.9534 54.5891 29.1567V29.1567ZM80.6856 13.9748C84.2378 16.8964 87.4463 20.8789 86.3575 25.6912C84.5814 32.7955 76.8475 36.5768 70.6885 38.9825C67.3365 40.1001 63.9567 41.2466 60.2899 41.5903C60.0608 41.5614 59.6883 41.6182 59.6305 41.2745L59.7162 40.8741C64.9299 35.0009 68.8825 28.4135 72.35 21.7385C73.9538 18.7303 75.444 15.6373 76.8186 12.6001C77.0189 12.371 77.22 12.2564 77.4492 12.1708C78.7372 12.2844 79.6546 13.2874 80.6856 13.9748V13.9748ZM30.6972 6.41221L30.5826 6.84155C23.0489 15.4062 18.0932 25.3465 13.3955 35.2291C12.479 36.0887 11.5905 34.9422 10.7597 34.5697C6.57704 31.8204 2.79575 27.3797 3.88451 22.1092C5.63172 15.2349 12.7072 11.5682 18.6092 9.07682C22.1036 7.75895 25.7424 6.69908 29.5805 6.09742C29.9819 6.09646 30.4969 6.03966 30.6972 6.41221ZM68.0816 7.78687C68.511 8.01598 69.0269 8.10166 69.2849 8.531C69.514 9.0181 69.0558 9.33288 68.7978 9.64863C62.8679 14.2886 56.0793 16.8675 49.1463 19.1307C45.6221 19.9904 42.0699 21.5373 38.1461 20.6777C37.2287 20.4486 36.3989 19.8469 35.883 18.9584C34.9088 16.2659 36.2266 13.4588 37.3722 11.1099C38.8903 8.15941 41.5838 4.69292 45.3073 4.63612C53.3281 4.57836 60.8906 5.78167 68.0816 7.78687V7.78687ZM77.993 8.01598C84.0664 11.339 90.9416 17.1823 90.2254 24.974C89.3947 32.1929 82.6629 37.2343 76.6473 40.2714C59.0866 48.6648 34.4226 48.9218 16.2892 41.5893C10.1581 39.0402 3.28286 34.6573 0.70392 28.0679C-1.2724 22.654 1.13326 17.011 5.1735 13.2586C13.6236 5.58144 24.3947 2.94667 35.4815 1.42761C47.5137 -0.033686 60.1744 1.2553 70.9455 4.95091C73.3521 5.83943 75.7299 6.81363 77.993 8.01598Z" fill="#003984"/></svg> 