<!-- created by svgstack.com | Attribution is required. --><svg width="83" height="33" viewBox="0 0 83 33" fill="none" xmlns="http://www.w3.org/2000/svg"><g clip-path="url(#clip0_601_24616)"><path d="M68.9028 17.6222C68.8363 21.2923 69.629 23.2363 72.6544 23.2363C75.6749 23.2363 76.1084 19.9248 76.1084 17.4049C76.1084 14.8833 75.5352 12.4354 72.3618 12.4354C70.415 12.4354 68.9776 13.9481 68.9028 17.6222ZM62.782 32.9591V8.11555H68.9776C68.9776 8.11555 68.9776 8.47531 68.9776 9.12331C68.9776 10.4675 69.5198 9.91321 69.9566 9.38938C70.0297 9.3018 71.4105 7.61167 74.5203 7.61167C77.6206 7.61167 82.4437 9.77131 82.4437 17.4049C82.4437 23.3095 79.5663 27.6293 74.5968 27.6293C71.8584 27.6293 70.2753 26.5512 69.9133 26.116C69.5508 25.687 69.0475 25.6121 69.0475 26.116C69.0475 26.621 69.0475 32.9591 69.0475 32.9591H62.782" fill="#231F20"/><path d="M14.8955 0.0523973H21.5928C21.5928 0.0523973 21.5928 14.5967 21.5928 17.6222C21.5928 20.6443 20.2951 26.983 11.0074 26.983C1.71869 26.983 0.710938 21.075 0.710938 17.7652V14.5252H7.19206C7.19206 14.5252 7.19206 15.7491 7.19206 17.692C7.19206 19.636 8.48861 21.4353 10.9354 21.4353C13.3833 21.4353 14.8955 20.0678 14.8955 17.7652C14.8955 15.4609 14.8955 0.0523973 14.8955 0.0523973Z" fill="#231F20"/><path d="M35.5988 14.957C35.5988 13.1549 34.5927 11.427 32.2884 11.427C30.0562 11.427 29.2635 13.0096 29.2635 14.957H35.5988ZM31.6426 7.39547C36.902 7.39547 41.5084 9.41098 41.5084 18.7003H29.0523C29.0523 21.6526 30.2751 22.8771 32.4353 22.8771C34.5961 22.8771 35.3156 21.1476 35.3156 21.1476H41.438C41.438 23.8128 37.7651 27.4131 32.2191 27.3416C25.8843 27.3416 22.7874 22.6609 22.7874 17.8361C22.7874 13.0096 25.5218 7.39547 31.6426 7.39547" fill="#231F20"/><path d="M55.5116 14.957C55.5116 13.1549 54.5044 11.427 52.2001 11.427C49.969 11.427 49.1746 13.0096 49.1746 14.957H55.5116ZM51.5554 7.39547C56.8143 7.39547 61.4196 9.41098 61.4196 18.7003H48.964C48.964 21.6526 50.1879 22.8771 52.3498 22.8771C54.5083 22.8771 55.2289 21.1476 55.2289 21.1476H61.3514C61.3514 23.8128 57.6779 27.4131 52.1336 27.3416C45.7955 27.3416 42.6985 22.6609 42.6985 17.8361C42.6985 13.0096 45.4363 7.39547 51.5554 7.39547" fill="#231F20"/><path d="M78.3429 29.9808C78.3429 28.9969 79.1439 28.1975 80.1312 28.1975C81.1151 28.1975 81.9144 28.9969 81.9144 29.9808C81.9144 30.963 81.1151 31.7673 80.1312 31.7673C79.1439 31.7673 78.3429 30.963 78.3429 29.9808ZM78.1367 29.9808C78.1367 31.0817 79.0281 31.9752 80.1312 31.9752C81.2271 31.9752 82.1234 31.0817 82.1234 29.9808C82.1234 28.8799 81.2271 27.9863 80.1312 27.9863C79.0281 27.9863 78.1367 28.8799 78.1367 29.9808" fill="#231F20"/><path d="M80.9302 31.0007L80.5161 30.0228C80.6475 29.9774 80.6913 29.9452 80.7611 29.8704C80.852 29.7729 80.9091 29.6187 80.9091 29.4791C80.9091 29.1265 80.6381 28.8865 80.2451 28.8865H79.4136V31.0007H79.6602V30.0849H80.2611L80.6558 31.0007H80.9302ZM79.6536 29.8704V29.1165H80.2401C80.4851 29.1165 80.6408 29.2562 80.6408 29.4724C80.6408 29.718 80.4757 29.8704 80.2057 29.8704H79.6536Z" fill="#231F20"/></g><defs><clipPath id="clip0_601_24616"><rect width="81.8148" height="32.9885" fill="white" transform="translate(0.669922 0.0114746)"/></clipPath></defs></svg> 