<!-- created by svgstack.com | Attribution is required. --><svg width="186" height="32" viewBox="0 0 186 32" fill="none" xmlns="http://www.w3.org/2000/svg"><path fill-rule="evenodd" clip-rule="evenodd" d="M22.5881 2.00247C23.2607 2.02109 23.1893 2.49379 23.078 2.65676C21.0928 5.745 16.4021 11.1828 12.9866 17.1489C12.4212 18.1155 12.0001 18.8267 12.0001 19.8876C12.0001 21.3258 12.8979 23.0262 14.7017 23.7559C15.8882 24.2313 16.6351 24.2459 17.9157 24.2644C27.4231 24.5584 31.2346 24.3015 39.7421 24.0128C40.2334 24.0114 40.6903 23.6804 40.8545 23.4804C42.4993 21.7654 43.4475 18.6824 43.4475 15.9622C43.4475 9.90344 39.0838 4.44591 32.2768 1.82111L31.1843 3.22222C37.1504 5.68809 40.2334 10.6133 40.2334 15.888C40.2334 17.0747 40.032 18.2242 39.6678 19.322C39.3978 20.0876 39.0653 20.5272 38.0985 20.5417C31.1656 20.69 27.2404 20.7986 20.289 20.6159C19.3924 20.5974 19.1024 20.2703 18.9567 19.5604C18.8454 19.1393 18.9382 18.7896 19.2282 18.2613C22.9151 11.7297 29.3381 4.26443 30.5989 2.49379C30.8386 2.16671 30.726 1.50721 29.9036 1.28873C27.4973 0.577536 24.7971 0.288849 22.0596 0.288849C9.66523 0.339161 0.923295 7.31034 0.722046 15.9622C1.21869 26.3477 10.2492 31.7112 22.0596 31.7112C29.2865 31.7112 35.9068 29.1565 39.7805 25.1054L36.2021 25.2497C32.8979 28.1884 27.6046 29.7591 22.1298 29.7591C12.151 29.7591 4.02622 24.7968 4.02622 15.888C4.02622 8.22556 12.1496 1.98396 22.1298 1.98396L22.5881 2.00247ZM104.567 20.7602L111.317 16.3278L101.099 8.71689V10.5802H85.9862C84.0143 10.5802 82.392 11.9827 82.098 13.8088L99.6189 13.7903V17.1117L86.2232 17.1302C84.107 17.1302 82.3735 18.738 82.2807 20.7602H104.567ZM168.749 10.5245H184.242V7.25876H168.661C162.834 7.25876 158.073 11.7111 157.835 17.2945L176.617 17.2747C177.836 17.2747 178.822 18.0785 178.822 19.0466C178.822 20.0319 177.835 20.8173 176.617 20.8173L155.939 20.8159V7.25876H149.806V20.7272H137.489C135.682 20.4331 135.115 19.1207 135.115 16.5648L135.116 7.25876H125.226L116.335 13.0235L108.598 7.25876H84.7997C79.5249 7.25876 75.1281 10.8888 74.16 15.7238H78.9408C77.1371 16.9475 75.7492 18.6824 74.9823 20.7285L59.8506 20.7272C58.0668 20.4331 57.4814 19.1207 57.4814 16.5648L57.4827 7.25876H51.367V15.9437C51.1101 21.6952 54.2301 23.7559 57.7899 24.083L105.332 24.0816L114.092 18.4241L121.74 24.1572H131.098L119.185 15.1967L128.982 8.84666L129 15.9437C128.749 21.6952 132.176 23.7559 135.737 24.083L180.228 24.0816C183.294 24.0816 185.778 21.8396 185.778 19.0466C185.778 16.2708 183.292 14.0287 180.228 14.0287H164.862C165.006 12.0753 166.688 10.5245 168.749 10.5245Z" fill="black"/></svg> 