<!-- created by svgstack.com | Attribution is required. --><svg width="85" height="85" viewBox="0 0 85 85" fill="none" xmlns="http://www.w3.org/2000/svg"><path d="M42.4965 45.6025C42.369 45.6025 42.1246 45.4396 41.7102 44.6816C39.976 41.4527 37.5948 38.6158 34.7154 36.3481C32.4557 34.5758 29.9473 33.1462 27.2708 32.1052C26.8652 31.9404 26.4579 31.7799 26.049 31.6235C22.4648 30.2068 18.7496 28.7441 15.3 26.7466C14.9176 26.5302 14.5398 26.3058 14.1667 26.0737C14.8538 24.8696 15.6542 23.7185 16.5396 22.6666C17.8245 21.1308 19.3183 19.7825 20.9773 18.661C22.7585 17.4701 24.6841 16.5108 26.7077 15.8064C31.0215 14.2693 36.1887 13.515 42.4965 13.5079C48.8112 13.515 53.975 14.2693 58.2888 15.81C60.3138 16.512 62.2408 17.4701 64.0227 18.661C65.6808 19.7823 67.1744 21.1293 68.4604 22.6631C69.3458 23.7185 70.1427 24.8696 70.8333 26.0737C70.4685 26.3004 70.0825 26.5306 69.7 26.7537C66.2433 28.7512 62.5352 30.2139 58.944 31.6271L57.7221 32.1087C55.0482 33.1506 52.5422 34.5802 50.2846 36.3516C47.4039 38.6195 45.0226 41.4578 43.2898 44.6887C42.8754 45.4431 42.6275 45.6025 42.4965 45.6025ZM42.4965 70.6527C37.0281 70.6456 32.5869 70.1958 28.9319 69.2821C25.3442 68.3896 22.3621 67.0154 19.8085 65.0746C17.8511 63.5714 16.181 61.7273 14.8785 59.631C13.6583 57.6751 12.6942 55.5707 12.0098 53.3693C10.9424 49.9481 10.3851 46.3883 10.3558 42.8046C10.3558 40.4175 10.5223 38.1543 10.834 36.0718C14.751 38.1827 18.4592 39.2416 21.7423 40.1802L22.5038 40.3927C27.0725 41.7066 30.6992 43.4279 33.6069 45.6627C35.2892 46.966 36.759 48.4712 37.9631 50.1393C39.27 51.9385 40.3112 53.9927 41.0692 56.2487C41.4092 57.2723 41.7775 57.9062 42.4965 57.9062C43.2296 57.9062 43.5873 57.2687 43.9308 56.2487C45.2827 52.0437 47.8862 48.3516 51.3931 45.6662C54.2973 43.4279 57.9275 41.7066 62.4963 40.3927L63.2612 40.1802C66.5408 39.2416 70.249 38.1827 74.1625 36.0718C74.4813 38.1579 74.6442 40.4175 74.6442 42.801C74.6442 44.4231 74.4813 48.6943 72.9973 53.3693C72.3133 55.5703 71.3504 57.6746 70.1321 59.631C68.8256 61.7287 67.1506 63.5728 65.1879 65.0746C62.6273 67.0154 59.6452 68.3896 56.0717 69.2821C52.406 70.1958 47.9683 70.6456 42.4965 70.6527ZM76.8223 19.1002C70.0613 11.8398 59.1494 8.5106 42.4965 8.49289C25.8506 8.5106 14.9388 11.8362 8.17771 19.0966C3.15208 24.4835 0 31.9387 0 42.0537C0 47.646 1.38125 61.887 12.6225 69.2395C19.3517 73.6383 28.0429 76.4858 42.4965 76.507C56.9571 76.4858 65.6448 73.6383 72.3775 69.2395C83.6152 61.887 85 47.6425 85 42.0537C85 31.9671 81.8231 24.4587 76.8188 19.0931L76.8223 19.1002Z" fill="black"/></svg> 