<!-- created by svgstack.com | Attribution is required. --><svg width="74" height="75" viewBox="0 0 74 75" fill="none" xmlns="http://www.w3.org/2000/svg"><g clip-path="url(#clip0_809_289)"><path d="M37.1558 0.891602C47.8947 0.891602 59.0325 1.80901 70.3452 3.76043C70.5139 8.29533 70.7072 15.3032 70.3851 21.2495C69.664 34.5106 66.7461 44.8015 61.1987 53.6412C55.6635 62.4533 47.1 70.0288 37.1558 74.53C27.2084 70.0288 18.6449 62.4533 13.1128 53.6412C7.56542 44.8046 4.6475 34.5106 3.92646 21.2495C3.60429 15.3032 3.79759 8.29533 3.96635 3.76043C14.9277 1.86156 26.0311 0.901798 37.1558 0.891602ZM37.1558 2.168C26.5702 2.168 15.8313 3.07007 5.20286 4.84966C4.96967 11.5753 4.96967 16.9264 5.20286 21.1851C5.90856 34.2191 8.76818 44.3198 14.1929 52.9631C19.6237 61.6095 27.7607 68.7524 37.1558 73.1278C46.5508 68.7524 54.6909 61.6095 60.1187 52.9631C65.5464 44.3168 68.403 34.216 69.1087 21.1851C69.3419 16.9264 69.3419 11.5753 69.1087 4.84966C58.5498 3.07703 47.8624 2.18009 37.1558 2.168ZM37.0637 40.8895L37.3368 42.4911C37.3776 42.6423 37.3744 42.802 37.3276 42.9514C37.1803 43.4699 36.2138 47.8299 35.6769 51.0056C35.4222 52.4691 35.2043 53.9204 35.0785 55.1631C34.9923 55.6667 35.0399 56.1841 35.2166 56.6635C35.7444 58.4338 37.6958 63.0547 38.0701 63.8984C38.1112 63.991 38.1381 64.0893 38.1499 64.1899L38.291 65.2791C37.6651 64.3341 34.2655 58.0841 32.9308 54.62C32.7743 54.2119 32.7467 54.0125 32.9185 53.2608C33.8451 49.2843 36.358 42.5249 37.0637 40.8895ZM32.1085 31.2797C32.2005 31.562 32.9983 34.2866 33.0596 34.9371C33.1205 35.2072 33.0902 35.4898 32.9737 35.741C32.2742 37.6003 30.1632 42.2242 29.3501 43.7675C29.166 44.105 28.9972 44.329 28.6567 44.6757C27.8804 45.4674 26.3892 46.9647 25.4687 47.8023C25.188 48.0463 25.0122 48.3892 24.9778 48.7596C24.8588 49.5121 24.7748 50.2698 24.7262 51.0301C24.7017 51.521 24.7784 51.7512 25.0545 52.239C26.6776 55.1385 32.0993 61.812 33.6457 63.2111C33.779 63.332 33.9227 63.4409 34.0752 63.5364C34.3023 63.6898 35.0417 64.1684 35.0417 64.1684C35.0716 64.1896 35.0967 64.2167 35.1154 64.2482L35.3854 64.7207C34.5881 64.328 33.7954 63.926 33.0075 63.5149C32.8712 63.441 32.7427 63.3537 32.6239 63.2541C30.8137 61.7506 25.2724 55.2582 23.6431 52.5458C23.235 51.8708 23.1952 51.653 23.2473 51.0117C23.3516 49.8182 23.5081 48.3178 23.6462 47.6612C23.7026 47.2936 23.8683 46.9515 24.1218 46.6793C26.4352 44.0283 30.8904 38.171 32.1913 35.6642C32.3085 35.4683 32.3641 35.2417 32.3509 35.0138C32.357 34.2375 32.1115 32.7279 32.044 32.3444C32.0345 32.2845 32.0324 32.2237 32.0379 32.1634L32.1085 31.2797ZM47.235 29.8253C47.4866 29.9389 47.8916 30.0708 48.0757 30.2856C50.9507 33.2863 53.2488 36.4006 53.7091 37.2199C53.798 37.3726 53.8554 37.5416 53.8778 37.7169C54.3963 42.0953 53.9514 46.7315 52.896 50.7662C52.8634 50.932 52.7976 51.0894 52.7027 51.2291C52.6078 51.3688 52.4857 51.488 52.3437 51.5793C50.0118 53.3344 44.4613 57.9368 42.5989 59.6489C42.3957 59.8378 42.2192 60.0536 42.0742 60.2901C41.6047 61.0572 41.0248 62.1342 40.6567 62.8215C40.2762 61.993 39.4508 59.9741 39.1685 59.161C39.068 58.9171 39.0636 58.6441 39.1563 58.397C39.6165 56.7095 41.8011 51.791 42.2245 50.9013C42.2215 51.0148 42.246 51.3124 42.2031 51.4229C42.0098 52.0028 40.8377 55.878 40.5984 57.5594C40.5477 57.8373 40.5477 58.1221 40.5984 58.4001C40.7027 59.1825 41.1721 60.6215 41.1721 60.6215C41.2243 60.4957 41.752 59.4464 42.1202 59.158C44.2956 57.0163 48.8612 53.1043 51.4784 50.9841C51.773 50.7478 51.8804 50.5852 51.9479 50.1342C52.27 47.9097 52.3651 43.9148 52.1688 41.0061C52.1338 40.4576 51.9538 39.9282 51.6472 39.472C50.9353 38.4226 50.0885 37.4316 48.8029 36.1582C48.6192 35.9745 48.496 35.739 48.45 35.4832C48.0735 33.5915 47.6695 31.7053 47.2381 29.8253H47.235ZM22.9344 34.4554C23.1129 34.3971 23.3041 34.3897 23.4866 34.4339C24.3059 34.6302 26.0394 35.0567 27.3527 35.3912C27.5368 35.4403 27.7638 35.6121 27.862 35.7747L28.1473 36.2503C28.1964 36.3318 28.2238 36.4244 28.2271 36.5194C28.2303 36.6145 28.2092 36.7088 28.1657 36.7934C27.8613 37.3758 27.5483 37.9537 27.2269 38.5269L26.9569 39.0117C26.4567 39.9015 25.9566 40.7606 25.6743 41.2117C25.4902 41.5093 25.3859 41.6412 25.0545 41.7578C23.7659 42.2119 22.1612 42.755 21.21 43.0618C21.0167 43.1263 20.9492 43.2459 20.9891 43.4607C21.0566 43.8534 21.2744 45.1912 21.3573 45.5778C21.388 45.722 21.5045 45.8386 21.7193 45.7957C22.2808 45.6913 23.7781 45.3231 23.7781 45.3231L23.0724 45.9736C23.025 46.018 22.9684 46.0515 22.9067 46.0718C22.3395 46.2522 21.7664 46.4139 21.1885 46.5566C20.9492 46.6088 20.7958 46.5136 20.7313 46.2406C20.7313 46.2406 20.3079 44.4303 20.1545 43.8136C20.1305 43.7238 20.1039 43.6348 20.0747 43.5466C19.9087 43.0661 19.7266 42.5912 19.5286 42.1229C19.51 42.0804 19.5006 42.0344 19.501 41.9879C19.5071 41.5676 19.5838 40.6318 19.5838 40.6318C19.5838 40.6318 20.5012 41.4909 20.9461 41.8038C21.0443 41.8744 21.1057 41.8898 21.2284 41.856C21.8359 41.7026 23.2381 41.2362 24.0082 40.9478C24.1833 40.8816 24.3378 40.7705 24.4562 40.6256C25.254 39.6653 26.2512 38.171 26.828 37.0388C26.9061 36.8838 26.9214 36.7047 26.8709 36.5387L26.7482 36.1306C26.724 36.0645 26.6868 36.0038 26.6388 35.9522C26.5909 35.9006 26.5332 35.859 26.469 35.8299C25.2501 35.3641 24.0226 34.9212 22.7871 34.5014L22.9374 34.4554H22.9344ZM49.7571 22.8021C50.0555 22.6917 50.3847 22.6994 50.6776 22.8236C52.9481 23.7778 56.7712 26.0268 58.8975 27.6101C59.1031 27.7635 59.1828 27.8678 59.235 28.1132C59.7351 30.3838 59.9254 33.8969 59.6124 36.8517C59.5931 37.0508 59.5336 37.2439 59.4375 37.4193C58.0875 40.1746 56.5748 42.7673 54.9793 44.7678C55.0039 44.5223 55.1174 43.3533 55.1235 42.6722C55.1238 42.6365 55.1322 42.6013 55.1481 42.5694C55.1641 42.5375 55.1872 42.5097 55.2156 42.4881C55.5329 42.2422 55.845 41.9896 56.1514 41.7302C56.242 41.6554 56.3198 41.5663 56.3815 41.4663C57.032 40.4139 58.1918 38.214 58.6612 36.8916C58.776 36.5692 58.821 36.2262 58.7932 35.8852C58.6428 34.0381 58.3544 31.4853 57.9218 29.8161C57.8864 29.6755 57.8217 29.544 57.7318 29.4303C57.6418 29.3166 57.5288 29.2233 57.4002 29.1565C56.4966 28.7215 55.5753 28.3244 54.6387 27.966C54.4084 27.8746 54.194 27.7472 54.0036 27.5886C52.7451 26.5308 51.4612 25.5036 50.1529 24.508C50.0002 24.3939 49.8246 24.3143 49.6381 24.2745C49.4517 24.2348 49.2589 24.236 49.0729 24.2779C48.3004 24.4543 47.5312 24.6445 46.7656 24.8486C46.6179 24.8957 46.461 24.9062 46.3084 24.8793C46.0016 24.8455 45.3879 24.7965 45.1363 24.778C46.6496 24.0579 48.1911 23.3988 49.7571 22.8021ZM25.7234 37.7139C25.1968 38.5925 24.6136 39.436 23.9776 40.239C23.9102 40.3216 23.8224 40.385 23.7229 40.4231C23.0063 40.6845 22.283 40.927 21.5536 41.1503L25.7234 37.7139ZM18.2767 36.4927L17.9454 38.7877L16.8132 37.4623C17.0218 37.0143 17.6232 36.5939 18.2767 36.4927ZM16.1719 31.2797L15.7638 31.5374C15.6595 31.6019 15.6319 31.6295 15.5889 31.7215C15.5076 31.8891 15.4206 32.0538 15.3281 32.2155C15.2879 32.2735 15.2393 32.3252 15.1839 32.3689C14.7026 32.7397 14.2146 33.1018 13.7204 33.4551C13.6927 33.4735 13.659 33.4674 13.6344 33.4428C13.5291 33.3307 13.4288 33.214 13.3338 33.093C13.3027 33.0491 13.2866 32.9964 13.2877 32.9427C13.2894 32.8065 13.2956 32.6704 13.3061 32.5346C13.3184 32.3781 13.3614 32.3045 13.5516 32.1051C13.7664 31.8841 13.9965 31.654 14.242 31.4147C14.8372 30.9115 16.3468 29.6873 19.0407 27.7635C19.0925 27.727 19.1381 27.6824 19.1757 27.6315C19.458 27.2511 20.2619 26.2079 20.4583 25.9593C20.4864 25.9252 20.5183 25.8943 20.5534 25.8673C20.807 25.6622 21.0734 25.4737 21.3511 25.3027C22.0998 24.8302 23.5541 23.965 24.3672 23.4924L24.0604 23.8729L24.0052 23.922C23.4267 24.359 22.8519 24.8009 22.2808 25.2475C22.2415 25.2752 22.2084 25.3108 22.1835 25.352C22.1587 25.3932 22.1427 25.4391 22.1366 25.4868C22.0452 25.9953 21.9725 26.5071 21.9188 27.0209C21.9096 27.1437 21.8574 27.1989 21.7347 27.2511C21.2039 27.4658 20.5749 27.6929 20.0655 27.8954C19.9921 27.9202 19.9236 27.9575 19.863 28.0059C19.8109 28.0457 19.1358 28.6502 19.1358 28.6502C19.1358 28.6502 20.6055 28.2881 21.1456 28.1654C21.1953 28.15 21.2477 28.145 21.2994 28.1508C21.3512 28.1566 21.4012 28.1731 21.4462 28.1992C21.5598 28.2513 21.7439 28.325 21.8421 28.3618C21.9682 28.4129 22.1082 28.4184 22.2379 28.3771C22.8454 28.2421 23.864 27.9997 24.4102 27.8555C24.6546 27.7979 24.8844 27.6903 25.0852 27.5395C25.346 27.3585 26.0057 26.8645 26.0057 26.8645L25.9842 26.9995C25.9782 27.0364 25.9611 27.0707 25.9351 27.0977C25.779 27.2845 25.6173 27.4666 25.4503 27.6438C25.242 27.8759 24.9796 28.053 24.6863 28.1593C23.143 28.8036 20.5043 29.8039 18.5222 30.4912C18.4133 30.523 18.3156 30.5846 18.2399 30.6691L17.9945 30.9299C17.9945 30.9299 19.6114 31.0496 20.1054 31.1048C20.253 31.1181 20.3921 31.1795 20.5012 31.2797C20.9062 31.6295 22.2471 33.0133 22.649 33.4888C22.649 33.4888 18.8352 34.127 17.0678 34.5627C16.977 34.5824 16.8936 34.6274 16.8273 34.6926C16.761 34.7578 16.7146 34.8404 16.6935 34.9309C16.5462 35.4464 16.2026 37.1002 16.2026 37.1002C16.2026 37.1002 16.0799 37.0603 15.908 36.9621C15.7917 36.8932 15.6879 36.805 15.6012 36.7013C15.0846 36.1398 14.6049 35.5453 14.1653 34.9217C14.0701 34.7775 14.0303 34.5934 14.1499 34.4461C14.5089 34.0043 15.2269 33.2004 15.6227 32.7862C15.6843 32.7148 15.7359 32.6353 15.7761 32.55C15.9295 32.2339 16.0952 31.5743 16.1719 31.2797ZM40.7825 22.6395C40.896 22.6195 41.0129 22.6356 41.1169 22.6855L41.9024 23.0598C41.9408 23.0785 41.9745 23.1056 42.0011 23.139C42.0276 23.1725 42.0463 23.2115 42.0558 23.2531C42.1632 23.7042 42.2951 24.2994 42.381 24.8087C42.4167 25.0199 42.3776 25.2369 42.2706 25.4224C41.8361 26.1459 41.3797 26.856 40.9021 27.5518C40.8258 27.6766 40.8016 27.8265 40.8346 27.969C41.0064 28.9079 41.7121 32.1848 41.7121 32.1848L41.2672 31.7798C41.1819 31.7037 41.1184 31.6063 41.0831 31.4975C40.6672 30.2363 40.2733 28.9679 39.9019 27.6929C39.88 27.6168 39.8769 27.5366 39.8929 27.4591C39.909 27.3816 39.9436 27.3091 39.9939 27.248C40.4572 26.6834 41.1353 25.7814 41.528 25.2107C41.6385 25.0481 41.6753 24.8732 41.6109 24.7382C41.4881 24.492 41.3581 24.2495 41.2212 24.011C41.181 23.9394 41.1153 23.8857 41.0371 23.8606L40.5032 23.6919C40.4104 23.6615 40.3101 23.6626 40.2179 23.6949C39.055 24.1184 37.4902 24.7259 36.536 25.1248C36.4211 25.179 36.2911 25.192 36.1678 25.1616C35.8916 25.1217 35.0816 24.9775 34.6858 24.9008C34.6697 24.8976 34.6545 24.8906 34.6416 24.8804C34.6286 24.8701 34.6183 24.857 34.6114 24.8421C34.6045 24.8271 34.6013 24.8107 34.602 24.7943C34.6026 24.7778 34.6072 24.7617 34.6152 24.7474L35.0847 23.9312C35.1161 23.8769 35.1586 23.8297 35.2093 23.7927C35.26 23.7557 35.3179 23.7298 35.3792 23.7164C37.1717 23.3156 38.9733 22.9566 40.7825 22.6395ZM24.0758 26.3766C24.111 26.3732 24.1464 26.3812 24.1768 26.3995C24.2072 26.4177 24.2309 26.4452 24.2445 26.4779C24.2868 26.5866 24.3065 26.7028 24.3023 26.8194C24.2981 26.9361 24.27 27.0506 24.22 27.156C24.1965 27.2022 24.1637 27.243 24.1235 27.2758C24.0833 27.3085 24.0368 27.3325 23.9868 27.3462L23.232 27.5119C23.2217 27.5137 23.2112 27.5132 23.2012 27.5105C23.1912 27.5077 23.1819 27.5028 23.1739 27.4961C23.166 27.4894 23.1597 27.4809 23.1554 27.4715C23.1511 27.462 23.149 27.4517 23.1491 27.4413L23.2197 26.5515C23.2224 26.5231 23.2349 26.4966 23.2551 26.4764C23.2752 26.4563 23.3018 26.4438 23.3302 26.441L24.0758 26.3797V26.3766ZM32.6485 20.688C32.6682 20.6882 32.6875 20.6935 32.7045 20.7034C32.7215 20.7133 32.7357 20.7275 32.7456 20.7445C32.7555 20.7615 32.7608 20.7808 32.761 20.8005C32.7612 20.8202 32.7562 20.8396 32.7467 20.8568L30.9088 24.0263C30.807 24.2125 30.6362 24.3513 30.4332 24.4129L26.9906 25.4929C26.6147 25.6093 26.2265 25.6813 25.8339 25.7077C25.0699 25.7691 22.8024 25.8397 22.8024 25.8397L22.8515 25.7323C22.875 25.6813 22.9166 25.6409 22.9681 25.6187L24.042 25.1616C24.1223 25.1285 24.193 25.0757 24.2476 25.0082L25.9044 22.9647C25.9948 22.8521 26.1064 22.7583 26.2327 22.6886C27.3281 22.1087 29.2765 21.2434 30.6418 20.7862C30.7828 20.7411 30.9295 20.7163 31.0775 20.7126L32.6485 20.688ZM30.8075 17.0123C35.4191 16.6381 40.0526 16.6207 44.6669 16.9601C44.9447 16.9813 45.2173 17.0477 45.4738 17.1565C47.0847 17.8315 49.9412 19.3165 53.1169 21.1329C53.257 21.2135 53.3886 21.308 53.5096 21.4152C54.3503 22.1577 56.4828 24.3424 56.4828 24.3424L55.817 24.2104C55.7247 24.1923 55.637 24.1558 55.5592 24.103C53.9638 23.0386 52.3094 22.0655 50.604 21.1882C50.4091 21.0899 50.1981 21.0275 49.9811 21.0041C49.1199 20.9168 48.2563 20.8544 47.3915 20.8169C47.0663 20.8119 46.7471 20.7276 46.4618 20.5715C45.4717 20.0836 44.4636 19.6333 43.4396 19.2214C43.1758 19.1068 42.8892 19.0543 42.6019 19.068C40.5972 19.1037 38.5933 19.1753 36.5912 19.2828C36.5378 19.2854 36.4844 19.2823 36.4317 19.2736L35.683 19.157C37.8093 18.7888 43.0683 18.3193 45.2468 18.2058L44.36 17.9113C44.1886 17.8545 44.0098 17.8235 43.8292 17.8192C40.853 17.7517 36.763 17.764 33.299 18.0248C33.0851 18.0401 32.8755 18.0919 32.6792 18.1782C31.6881 18.6139 29.2734 19.9271 26.8495 21.271L24.4808 22.5996L24.8398 22.1332C24.876 22.0825 24.9232 22.0406 24.9778 22.0105C25.2908 21.8018 26.2358 21.1882 26.6163 20.909C27.3465 20.3597 28.4971 19.3902 29.1844 18.7888C29.3381 18.6528 29.4705 18.4946 29.5771 18.3193C29.8011 17.9604 30.0435 17.5707 30.1908 17.3528C30.2613 17.254 30.353 17.1721 30.4592 17.1132C30.5653 17.0543 30.6863 17.0198 30.8075 17.0123ZM14.6194 8.26771C15.5582 8.16953 16.0829 8.53465 16.0829 9.48888V10.0136C16.0829 10.9862 15.5582 11.382 14.6194 11.4771C13.3202 11.6128 12.0223 11.76 10.7257 11.9189V13.361C10.4527 13.3917 10.1826 13.4224 9.90957 13.4592V8.81079C11.4775 8.61261 13.0475 8.43157 14.6194 8.26771ZM58.1979 8.1143C60.2691 8.31692 62.3374 8.54911 64.4019 8.81079V9.56252C63.5088 9.44941 62.6149 9.34202 61.7203 9.24035V13.137C61.4483 13.106 61.1762 13.0753 60.9041 13.045V9.1483C60.0027 9.04836 59.1006 8.95426 58.1979 8.86602V8.1143ZM23.8088 7.50985V8.25544C22.1056 8.36045 20.4036 8.48523 18.7032 8.62977V9.77423C20.2156 9.64535 21.7294 9.53284 23.2443 9.43672V10.1854C21.7294 10.282 20.2157 10.3945 18.7032 10.5229V11.7809C20.4035 11.6357 22.1055 11.5109 23.8088 11.4065V12.1552C21.8391 12.2767 19.8711 12.425 17.9055 12.6001V7.94861C19.8711 7.7734 21.8391 7.62509 23.8088 7.50371V7.50985ZM50.2971 8.78318C50.2971 7.73997 50.8126 7.52519 51.9785 7.60497C53.0003 7.67554 54.0189 7.75224 55.0407 7.83509C56.0532 7.921 56.719 8.20328 56.719 9.26797V11.3421C56.719 12.3853 56.1422 12.5756 55.0407 12.4835C54.0205 12.3998 52.9998 12.3231 51.9785 12.2534C50.8648 12.1767 50.2971 11.9619 50.2971 10.8573V8.78318ZM42.3779 7.16007C44.3478 7.20916 46.3207 7.2828 48.2905 7.38405V8.13271C46.5874 8.04513 44.8834 7.97762 43.1788 7.9302V9.07466C44.6945 9.11762 46.2102 9.17592 47.7259 9.24956V9.99821C46.2109 9.92498 44.6951 9.86771 43.1788 9.82639V11.0813C44.8834 11.1283 46.5875 11.1958 48.2905 11.2838V12.0325C46.3207 11.9312 44.3497 11.8565 42.3779 11.8085V7.16007ZM32.1177 7.157V10.5198C32.1177 11.5845 31.5592 11.8177 30.4332 11.8514C29.4542 11.8814 28.4754 11.9182 27.4969 11.9619C26.4537 12.0079 25.8155 11.8085 25.8155 10.7561V7.39632L26.6132 7.35337V10.8573C26.6132 11.0721 26.7973 11.2439 27.0428 11.2347C28.3248 11.1742 29.6074 11.1251 30.8904 11.0874C30.9978 11.0874 31.1008 11.0448 31.1768 10.9688C31.2527 10.8929 31.2954 10.7899 31.2954 10.6824V7.17541L32.1177 7.15393V7.157ZM51.5214 8.32294C51.4664 8.31714 51.4109 8.32327 51.3586 8.34092C51.3062 8.35856 51.2583 8.38731 51.2181 8.42518C51.1779 8.46306 51.1463 8.50917 51.1256 8.56037C51.1049 8.61156 51.0954 8.66663 51.098 8.72181V11.0169C51.098 11.2317 51.282 11.4526 51.5214 11.471C52.8469 11.5569 54.1724 11.6551 55.4979 11.7686C55.6049 11.772 55.709 11.7335 55.7881 11.6613C55.8671 11.5891 55.9149 11.4889 55.9213 11.382V9.0808C55.9164 8.96645 55.8712 8.85751 55.7937 8.77328C55.7162 8.68904 55.6114 8.63495 55.4979 8.62056C54.1733 8.50806 52.8478 8.41089 51.5214 8.32294ZM35.6523 7.10484C37.1251 7.09257 38.5917 7.0987 40.0614 7.11711V7.86577C38.4905 7.84495 36.9195 7.84086 35.3486 7.85349C35.1338 7.85656 34.9221 8.04066 34.9221 8.25237V10.5843C34.9221 10.796 35.1368 11.0077 35.3486 11.0046C36.76 10.9923 38.1652 10.9954 39.5766 11.0107V9.75275C38.7585 9.74375 37.9402 9.73965 37.122 9.74048V8.99182C38.2082 8.99182 39.2913 9.00103 40.3744 9.01637V11.7717C38.8506 11.7485 37.3266 11.7414 35.8027 11.7502C34.6889 11.7594 34.1212 11.5661 34.1212 10.483V8.45794C34.1212 7.44542 34.6275 7.11098 35.6523 7.10484ZM14.8648 8.99489C13.4847 9.13703 12.1059 9.29249 10.7288 9.46127V11.1734C12.106 11.0047 13.4847 10.8493 14.8648 10.707C15.0765 10.6855 15.2882 10.4922 15.2882 10.2897V9.34774C15.2882 9.13296 15.0735 8.97341 14.8648 8.99489Z" fill="black"/></g><defs><clipPath id="clip0_809_289"><rect width="73.6384" height="73.6384" fill="white" transform="translate(0.33667 0.891602)"/></clipPath></defs></svg> 