<!-- created by svgstack.com | Attribution is required. --><svg width="62" height="42" viewBox="0 0 62 42" fill="none" xmlns="http://www.w3.org/2000/svg"><g clip-path="url(#clip0_601_1268)"><path d="M44.2941 19.7067C44.2941 19.7067 41.7979 20.428 36.9692 23.3953C32.6404 26.0599 30.9429 27.8502 30.9429 27.8502L17.5881 18.6207C17.5881 18.6207 23.2065 14.4891 27.901 17.6535L34.1983 21.9733L34.9665 21.4681L17.5908 9.29484C17.5908 9.29484 20.088 8.57262 24.9139 5.60719C29.2454 2.94164 30.9429 1.15049 30.9429 1.15049L44.2968 10.38C44.2968 10.38 38.6793 14.5116 33.984 11.3471L27.6866 7.02642L26.9185 7.53072L44.2941 19.7067Z" fill="#E20A17"/><path d="M33.9514 32.2974H23.7872V34.5577H28.6968L23.6143 39.3025V41.1964H33.9325V38.927H28.7986L33.9514 34.1939V32.2974Z" fill="#003399"/><path d="M17.8029 41.424C21.8679 41.424 22.9089 40.3857 22.9089 38.0965V32.2972H19.6886V37.7498C19.6886 38.6657 18.9052 39.2114 17.8029 39.2114C16.6565 39.2114 15.919 38.663 15.919 37.7354V32.2972H12.6987V38.0965C12.6987 40.3857 13.7397 41.424 17.8029 41.424Z" fill="#003399"/><path d="M39.8523 41.424C43.9173 41.424 44.9583 40.3857 44.9583 38.0965V32.2972H41.7371V37.7498C41.7371 38.6657 40.9528 39.2114 39.8523 39.2114C38.7059 39.2114 37.9657 38.663 37.9657 37.7354V32.2972H34.7463V38.0965C34.7463 40.3857 35.7873 41.424 39.8523 41.424Z" fill="#003399"/><path d="M61.0343 32.2973H57.6763V41.1963H61.0343V32.2973V32.2973Z" fill="#003399"/><path d="M57.1645 32.2974H52.7465L49.1715 35.3681V32.2974H45.8125V41.1964H49.1715V38.04L52.4917 41.1964H57.0033L52.0928 36.6307L57.1645 32.2974Z" fill="#003399"/><path d="M4.76101 34.7562C4.76101 34.0682 5.7804 34.0457 6.1244 34.0457C6.4693 34.0457 7.24646 34.1835 7.77507 35.0507H11.5726C11.5726 33.3739 9.98315 32.0402 6.13611 32.0402C1.86312 32.0402 1.13549 33.9151 1.13549 34.9921C1.13549 36.9778 2.67359 37.5595 6.01814 37.9162C6.30451 37.9459 8.04432 37.8639 8.04432 38.7005C8.04432 39.3201 7.06635 39.3615 6.70614 39.3615C6.34863 39.3615 5.67954 39.303 5.12662 38.3187H0.94458C0.94458 40.2728 2.26205 41.4021 6.69984 41.4021C10.7873 41.4021 11.8725 39.7334 11.8725 38.4646C11.8725 37.2327 11.0269 35.9791 7.54183 35.5334C6.08838 35.3451 4.76101 35.2659 4.76101 34.7562Z" fill="#003399"/></g><defs><clipPath id="clip0_601_1268"><rect width="60.5744" height="40.7581" fill="white" transform="translate(0.702393 0.908188)"/></clipPath></defs></svg> 