<!-- created by svgstack.com | Attribution is required. --><svg width="61" height="40" viewBox="0 0 61 40" fill="none" xmlns="http://www.w3.org/2000/svg"><g clip-path="url(#clip0_601_1308)"><path d="M30.2872 0.27211C13.716 0.27211 0.280029 8.96391 0.280029 19.6827C0.280029 30.4055 13.716 39.1013 30.2872 39.1013C46.8584 39.1013 60.2944 30.4095 60.2944 19.6827C60.2944 8.95602 46.8584 0.27211 30.2872 0.27211ZM30.2872 30.7683C27.8225 30.7683 25.8112 25.9137 25.685 19.805C27.1678 19.9351 28.7098 20.0061 30.2872 20.0061C31.8647 20.0061 33.4067 19.9351 34.8895 19.805C34.7633 25.9098 32.752 30.7683 30.2872 30.7683ZM25.9887 14.9543C26.6591 10.636 28.3312 7.5718 30.2872 7.5718C32.2433 7.5718 33.9154 10.636 34.5858 14.9543C33.2095 15.0766 31.774 15.1436 30.2872 15.1436C28.8005 15.1436 27.365 15.0766 25.9887 14.9543ZM30.2872 3.07999C27.0692 3.07999 24.3244 7.89912 23.3109 14.627C17.2101 13.6766 12.951 11.5076 12.951 8.98757C12.951 5.58814 20.7121 2.83154 30.2872 2.83154C39.8624 2.83154 47.6235 5.58814 47.6235 8.98757C47.6235 11.5076 43.3644 13.6766 37.2635 14.627C36.25 7.89912 33.5053 3.07999 30.2872 3.07999ZM4.58255 18.9571C4.58255 15.6681 5.84846 12.5802 8.05296 9.9301C8.02929 10.1155 8.01352 10.3047 8.01352 10.494C8.01352 14.6388 14.2287 18.1723 22.9008 19.4737C22.8929 19.7734 22.8929 20.0771 22.8929 20.3808C22.8929 28.1064 25.058 34.6489 28.0512 36.8691C14.8991 36.0765 4.58255 28.3588 4.58255 18.9571ZM32.5233 36.8691C35.5165 34.6489 37.6816 28.1064 37.6816 20.3808C37.6816 20.0732 37.6776 19.7734 37.6737 19.4737C46.3418 18.1723 52.561 14.6428 52.561 10.494C52.561 10.3047 52.5452 10.1155 52.5215 9.9301C54.726 12.5881 55.9919 15.6681 55.9919 18.9571C55.9919 28.3588 45.6753 36.0765 32.5233 36.8691Z" fill="#282830"/></g><defs><clipPath id="clip0_601_1308"><rect width="60.5744" height="39.3734" fill="white"/></clipPath></defs></svg> 