<!-- created by svgstack.com | Attribution is required. --><svg width="59" height="59" viewBox="0 0 59 59" fill="none" xmlns="http://www.w3.org/2000/svg"><g clip-path="url(#clip0_601_24774)"><path d="M29.5354 56.1127C14.9184 56.1127 2.94311 44.0787 2.94311 29.4618C2.94311 26.1744 3.53013 23.0632 4.64548 20.128L20.2017 51.4165C20.3778 51.8275 20.6713 52.1797 21.1409 52.1797C21.6105 52.1797 21.9041 51.8275 22.0802 51.4165L29.2419 35.3907C29.3006 35.2146 29.418 35.0385 29.5941 35.0385C29.7702 35.0385 29.8289 35.2146 29.9463 35.3907L37.108 51.4165C37.2841 51.8275 37.5777 52.1797 38.0473 52.1797C38.5169 52.1797 38.8104 51.8275 38.9865 51.4165L54.5427 20.128C55.6581 23.0632 56.2451 26.1744 56.2451 29.4618C56.1277 44.0787 44.1523 56.1127 29.5354 56.1127ZM29.5354 23.4154C29.3593 23.4154 29.3006 23.2393 29.1832 23.0632L20.8474 4.27833C23.5477 3.28038 26.4829 2.75206 29.5354 2.75206C32.5879 2.75206 35.5231 3.28038 38.2234 4.27833L29.8876 23.0632C29.7702 23.298 29.7115 23.4154 29.5354 23.4154ZM21.0235 42.7285C20.8474 42.7285 20.7887 42.5524 20.6713 42.3763L7.1697 15.1383C9.5765 11.44 12.8051 8.32881 16.7382 6.15681L26.4829 27.8181C26.6003 28.1703 26.8938 28.2877 27.1873 28.2877H31.8835C32.2357 28.2877 32.4705 28.229 32.6466 27.8181L42.3913 6.15681C46.2656 8.32881 49.553 11.44 51.9598 15.1383L38.3408 42.3763C38.2821 42.5524 38.1647 42.7285 37.9886 42.7285C37.8125 42.7285 37.7538 42.5524 37.6364 42.3763L32.5292 30.7532C32.3531 30.3423 32.1183 30.2836 31.7661 30.2836H27.0699C26.7177 30.2836 26.4829 30.3423 26.3067 30.7532L21.3757 42.3763C21.317 42.5524 21.1996 42.7285 21.0235 42.7285ZM29.5354 58.8131C45.796 58.8131 58.8867 45.7224 58.8867 29.4618C58.8867 13.2011 45.796 0.110443 29.5354 0.110443C13.2748 0.110443 0.184082 13.2011 0.184082 29.4618C0.184082 45.7224 13.2748 58.8131 29.5354 58.8131Z" fill="black"/></g><defs><clipPath id="clip0_601_24774"><rect width="59" height="59" fill="white"/></clipPath></defs></svg> 